<svg width="37" height="37" viewBox="0 0 37 37" fill="none" xmlns="http://www.w3.org/2000/svg">
<path d="M17.9144 0H19.1431C19.2719 0.0614108 19.4085 0.0332642 19.5424 0.0324113C19.6926 0.0434993 19.8428 0.0545874 19.9921 0.0665284C20.8394 0.130498 21.6773 0.251614 22.5066 0.435846C24.0996 0.789811 25.6193 1.34763 27.0664 2.10076C28.97 3.09101 30.6441 4.38405 32.1006 5.95685C33.9701 7.97487 35.314 10.3 36.1476 12.9201C36.6169 14.3949 36.9036 15.9028 36.9676 17.4509C36.9659 17.5848 36.9334 17.7213 37 17.8501V19.115C36.9317 19.2557 36.9701 19.405 36.9676 19.5508C36.9488 20.2741 36.8558 20.9905 36.7329 21.7019C36.4522 23.3233 35.959 24.8782 35.2568 26.3657C34.0827 28.8537 32.4342 30.9749 30.319 32.7362C29.2789 33.6028 28.1569 34.3448 26.9529 34.9615C25.4572 35.7274 23.8872 36.287 22.2396 36.6239C21.65 36.7441 21.0552 36.832 20.4562 36.8977C20.0185 36.9454 19.58 36.9625 19.1422 37C18.6968 37 18.2514 37 17.806 37C17.3751 36.9556 16.9417 36.9437 16.5099 36.8968C15.5748 36.7962 14.6533 36.629 13.7454 36.3859C11.7531 35.852 9.89808 35.0118 8.18474 33.8638C6.24188 32.5622 4.61131 30.9399 3.27768 29.02C1.96964 27.1367 1.05154 25.0778 0.508867 22.8508C0.332244 22.1258 0.203402 21.3914 0.119783 20.6494C0.0634686 20.153 0.0293384 19.6549 0.00630058 19.1559C0.0208059 18.8497 -0.012471 18.5444 0.00544732 18.2382C0.0131266 18.1068 0.0267787 17.9746 0.00544732 17.8432C0.0293384 17.5797 0.0318982 17.3144 0.0515231 17.0509C0.131729 15.9736 0.303233 14.9126 0.578834 13.8695C1.28789 11.1836 2.51658 8.76213 4.30585 6.63151C6.11902 4.47275 8.30761 2.80698 10.8785 1.64274C12.9672 0.697695 15.155 0.159497 17.4434 0.0332642C17.6013 0.03497 17.7608 0.0622637 17.9144 0ZM23.3266 19.799C22.2182 19.799 21.1107 19.799 20.0023 19.799C19.7702 19.799 19.7975 19.7734 19.7975 19.9977C19.7975 21.8699 19.7975 23.7421 19.7975 25.6143C19.7975 25.6501 19.8001 25.6868 19.7975 25.7226C19.7933 25.7849 19.8223 25.8096 19.882 25.8079C19.9238 25.8062 19.9665 25.8079 20.0083 25.8079C21.8027 25.8079 23.5971 25.8079 25.3923 25.8079C25.6406 25.8079 25.5869 25.8531 25.679 25.604C26.0075 24.7178 26.2644 23.8103 26.4555 22.884C26.6483 21.9458 26.7695 20.9974 26.836 20.0421C26.8531 19.7999 26.8497 19.799 26.615 19.799C25.5186 19.799 24.423 19.799 23.3266 19.799ZM23.3223 17.2036C24.4307 17.2036 25.5382 17.2036 26.6466 17.2036C26.6884 17.2036 26.7311 17.2018 26.7729 17.2036C26.8258 17.2061 26.8497 17.1831 26.8454 17.1293C26.8386 17.033 26.8352 16.9366 26.8275 16.8411C26.772 16.1152 26.6884 15.3928 26.5604 14.6746C26.3599 13.547 26.0673 12.4451 25.6654 11.3729C25.5835 11.1546 25.6159 11.1972 25.4145 11.1964C24.0297 11.1947 22.6448 11.1955 21.2592 11.1955C20.8377 11.1955 20.4161 11.1955 19.9946 11.1955C19.7651 11.1955 19.7975 11.1776 19.7975 11.4019C19.7975 13.2681 19.7975 15.1343 19.7975 16.9997C19.7975 17.0415 19.7992 17.0841 19.7975 17.1259C19.7958 17.1788 19.8189 17.2036 19.8718 17.2027C19.9196 17.2027 19.9682 17.2027 20.016 17.2027C21.1184 17.2027 22.2199 17.2027 23.3223 17.2027V17.2036ZM10.1634 19.8186C10.1617 19.8348 10.1575 19.8519 10.1583 19.8689C10.2104 20.7466 10.3102 21.6183 10.4698 22.4832C10.6686 23.5613 10.9561 24.6155 11.3392 25.6433C11.4007 25.8079 11.4024 25.8079 11.5824 25.8079C13.3887 25.8079 15.1951 25.8079 17.0023 25.8079C17.2318 25.8079 17.2019 25.836 17.2019 25.6066C17.2028 23.7404 17.2019 21.8742 17.2019 20.0088C17.2019 19.967 17.1994 19.9244 17.2019 19.8826C17.2053 19.8195 17.1763 19.7956 17.1158 19.7999C17.0859 19.8024 17.0552 19.7999 17.0253 19.7999C14.7915 19.7999 12.5568 19.7999 10.323 19.7999C10.2701 19.7999 10.2146 19.7862 10.1617 19.8186H10.1634ZM10.1566 17.1882C10.2266 17.2138 10.2931 17.2036 10.358 17.2036C12.0986 17.2036 13.8384 17.2036 15.579 17.2036C16.0552 17.2036 16.5304 17.2036 17.0065 17.2036C17.1374 17.2036 17.2031 17.1353 17.2036 16.9988C17.2036 16.4752 17.2036 15.9515 17.2036 15.4278C17.2036 14.0733 17.2036 12.7189 17.2036 11.3644C17.2036 11.181 17.2199 11.1964 17.0424 11.1955C16.8018 11.1955 16.5603 11.1955 16.3197 11.1955C14.736 11.1955 13.1524 11.1955 11.5688 11.1955C11.3844 11.1955 11.4118 11.1802 11.3503 11.3422C11.114 11.9606 10.9211 12.5926 10.7547 13.2332C10.5303 14.1023 10.3708 14.9834 10.2667 15.8738C10.2163 16.3088 10.1788 16.7455 10.1575 17.1873L10.1566 17.1882ZM8.62246 11.2126C8.59175 11.187 8.5542 11.1964 8.51922 11.1964C7.1762 11.1964 5.83318 11.1972 4.49015 11.1938C4.38947 11.1938 4.34254 11.2279 4.29902 11.3141C3.46454 12.9739 2.9287 14.7249 2.70429 16.569C2.67955 16.7745 2.64456 16.9818 2.65651 17.2036H2.80839C4.3323 17.2036 5.85621 17.2036 7.38013 17.2036C7.40402 17.2036 7.42876 17.201 7.45265 17.2036C7.54224 17.2155 7.57211 17.1703 7.56869 17.0884C7.56699 17.0586 7.57125 17.0287 7.57211 16.998C7.61306 16.1493 7.70863 15.3066 7.84686 14.4691C8.02092 13.4174 8.26751 12.3828 8.5926 11.3678C8.60881 11.3175 8.64124 11.2689 8.62417 11.2117L8.62246 11.2126ZM34.3549 17.1831C34.3558 17.1626 34.3592 17.1396 34.3575 17.1174C34.2892 16.3805 34.1791 15.6495 34.0136 14.9271C33.7278 13.6852 33.2926 12.4979 32.7269 11.3559C32.6689 11.2382 32.6083 11.1913 32.4718 11.1921C31.1654 11.1981 29.8583 11.1955 28.5519 11.1964C28.4931 11.1964 28.4325 11.1836 28.3762 11.21C28.3659 11.2433 28.3821 11.2697 28.3915 11.2979C28.6313 12.0485 28.8361 12.8084 28.9939 13.5812C29.1722 14.4537 29.3045 15.3339 29.377 16.2218C29.4009 16.5152 29.424 16.8095 29.4402 17.1038C29.4444 17.1839 29.4734 17.2112 29.5485 17.2036C29.5724 17.201 29.5963 17.2036 29.6211 17.2036C31.1441 17.2036 32.668 17.2036 34.1911 17.2036C34.244 17.2036 34.2994 17.2172 34.3549 17.1831ZM8.61905 25.8079C8.63782 25.7362 8.61052 25.6936 8.59601 25.6484C8.29908 24.7195 8.06444 23.7745 7.89549 22.8141C7.72825 21.8648 7.61562 20.9095 7.56869 19.9466C7.56187 19.8016 7.56101 19.7999 7.41426 19.7999C7.03456 19.799 6.65571 19.7999 6.27601 19.7999C5.1318 19.7999 3.98673 19.7999 2.84252 19.7999C2.64542 19.7999 2.64371 19.7999 2.65907 19.9875C2.69576 20.4438 2.76146 20.8959 2.84167 21.3462C3.10959 22.8491 3.59936 24.2769 4.27513 25.6433C4.33742 25.7695 4.40739 25.8121 4.54903 25.8113C5.85024 25.8053 7.15145 25.8079 8.45267 25.8079C8.50642 25.8079 8.56018 25.8079 8.62076 25.8079H8.61905ZM28.3659 25.7866C28.4188 25.8173 28.4683 25.807 28.5152 25.807C29.8395 25.807 31.1646 25.8053 32.4888 25.8113C32.6134 25.8113 32.6663 25.7644 32.7175 25.662C33.5776 23.9459 34.116 22.1352 34.3233 20.2263C34.3353 20.1129 34.3455 19.9986 34.3575 19.8852C34.3643 19.8246 34.3421 19.7947 34.2781 19.7982C34.2363 19.8007 34.1936 19.7982 34.1518 19.7982C33.4897 19.7982 32.8276 19.7982 32.1646 19.7982C31.3037 19.7982 30.4427 19.7982 29.5818 19.7982C29.4282 19.7982 29.447 19.8058 29.4393 19.9355C29.4026 20.5479 29.348 21.1586 29.2687 21.7676C29.1091 22.9983 28.8506 24.2078 28.4854 25.3942C28.4453 25.5256 28.4043 25.6569 28.3651 25.7857L28.3659 25.7866ZM24.3215 28.4195C24.2712 28.388 24.2285 28.3999 24.1884 28.3999C22.7797 28.3999 21.3709 28.3999 19.9622 28.3999C19.9324 28.3999 19.9016 28.4008 19.8718 28.3999C19.8189 28.3991 19.7958 28.4247 19.7975 28.4767C19.7984 28.5065 19.7975 28.5373 19.7975 28.5671C19.7975 30.1314 19.7975 31.6965 19.7984 33.2608C19.7984 33.2983 19.7754 33.3452 19.824 33.3725C21.2139 32.5162 23.6756 29.8073 24.3215 28.4204V28.4195ZM24.3317 8.58301C23.7558 7.61067 23.086 6.71254 22.33 5.87838C21.5715 5.03995 20.7404 4.28255 19.8035 3.60959C19.8001 3.66588 19.7975 3.68891 19.7975 3.71194C19.7975 5.29497 19.7975 6.87716 19.7975 8.46019C19.7975 8.47213 19.7992 8.48492 19.7975 8.49601C19.783 8.58813 19.8317 8.61286 19.9127 8.60433C19.9366 8.60178 19.9605 8.60433 19.9853 8.60433C21.3761 8.60433 22.7669 8.60433 24.1577 8.60433C24.2106 8.60433 24.2643 8.61713 24.3326 8.58386L24.3317 8.58301ZM12.6686 28.4187C13.8427 30.377 15.3376 32.03 17.1934 33.3947C17.1977 33.3171 17.2019 33.271 17.2019 33.2249C17.2019 31.6718 17.2019 30.1177 17.2019 28.5645C17.2019 28.5347 17.2002 28.504 17.2019 28.4741C17.2045 28.4213 17.1806 28.3965 17.1277 28.3991C17.0919 28.4008 17.0552 28.3991 17.0193 28.3991C15.6277 28.3991 14.236 28.3991 12.8452 28.3991C12.7932 28.3991 12.7394 28.3888 12.6686 28.4187ZM12.6703 8.60433H12.8128C14.2224 8.60433 15.6311 8.60433 17.0407 8.60433C17.0646 8.60433 17.0893 8.60178 17.1132 8.60433C17.1883 8.61372 17.2079 8.57363 17.2028 8.50881C17.2002 8.47298 17.2028 8.43631 17.2028 8.40048C17.2028 6.87118 17.2028 5.34189 17.2028 3.81259C17.2028 3.75544 17.2164 3.69488 17.1874 3.63859C16.0202 4.24417 13.4672 7.04518 12.6712 8.60433H12.6703ZM6.05929 28.4213C8.01836 30.8419 10.4518 32.5528 13.3862 33.5755C13.3785 33.5107 13.3393 33.4902 13.3119 33.4621C11.887 32.0061 10.7044 30.377 9.78972 28.5552C9.72999 28.4366 9.66514 28.3948 9.53118 28.3957C8.4356 28.4016 7.33917 28.3991 6.24359 28.3999C6.19069 28.3999 6.13693 28.388 6.05929 28.4213ZM6.04649 8.59751C6.10963 8.60092 6.13352 8.60348 6.15741 8.60348C7.29565 8.60348 8.43389 8.60178 9.57214 8.60689C9.6933 8.60689 9.73767 8.55231 9.78374 8.46019C10.6916 6.64857 11.8631 5.02545 13.2787 3.57547C13.3171 3.53624 13.3666 3.50383 13.3956 3.42706C10.4433 4.4429 8.01836 6.16752 6.04649 8.59666V8.59751ZM23.621 33.5542C25.0621 33.0757 26.4034 32.3993 27.6449 31.5251C28.8898 30.6482 29.9862 29.6154 30.9615 28.3991H30.7243C29.6518 28.3991 28.5801 28.4033 27.5075 28.394C27.3429 28.3923 27.2686 28.4468 27.197 28.5876C26.458 30.058 25.5391 31.4074 24.452 32.6432C24.1816 32.9503 23.9 33.248 23.6201 33.5542H23.621ZM30.9624 8.60433C29.9811 7.38635 28.8873 6.35431 27.6449 5.48006C26.4026 4.60581 25.0621 3.92603 23.6184 3.44924C23.6483 3.49956 23.685 3.53965 23.7234 3.57803C25.1432 5.02374 26.313 6.64857 27.2191 8.46104C27.2772 8.57619 27.3446 8.60775 27.4666 8.60775C28.563 8.60348 29.6586 8.60519 30.755 8.60519C30.8088 8.60519 30.8617 8.60519 30.9624 8.60519V8.60433Z" fill="white"/>
</svg>
