<svg width="42" height="36" viewBox="0 0 42 36" fill="none" xmlns="http://www.w3.org/2000/svg">
<rect x="1.5" y="1.5" width="39" height="33" rx="16.5" stroke="white" stroke-width="3"/>
<path d="M12 15.5C11.1716 15.5 10.5 16.1716 10.5 17C10.5 17.8284 11.1716 18.5 12 18.5V15.5ZM31.0607 18.0607C31.6464 17.4749 31.6464 16.5251 31.0607 15.9393L21.5147 6.3934C20.9289 5.80761 19.9792 5.80761 19.3934 6.3934C18.8076 6.97919 18.8076 7.92893 19.3934 8.51472L27.8787 17L19.3934 25.4853C18.8076 26.0711 18.8076 27.0208 19.3934 27.6066C19.9792 28.1924 20.9289 28.1924 21.5147 27.6066L31.0607 18.0607ZM12 18.5H30V15.5H12V18.5Z" fill="white"/>
</svg>
